forces
version=1
nRows=56
nColumns=19
inDegrees=yes
endheader
time	ground_force_1_vx	ground_force_1_vy	ground_force_1_vz	ground_force_1_px	ground_force_1_py	ground_force_1_pz	ground_moment_1_mx	ground_moment_1_my	ground_moment_1_mz	ground_force_2_vx	ground_force_2_vy	ground_force_2_vz	ground_force_2_px	ground_force_2_py	ground_force_2_pz	ground_moment_2_mx	ground_moment_2_my	ground_moment_2_mz
0.630000	186.617558	682.486047	-3.758673	1.447227	0.000000	0.643146	-0.034104	0.008856	0.095285	0.000000	0.000000	0.000000	0.000000	0.000000	0.000000	0.000000	0.000000	0.000000
0.630500	185.701129	674.417148	-3.679892	1.447463	0.000000	0.643186	-0.033724	0.008786	0.094277	0.000000	0.000000	0.000000	0.000000	0.000000	0.000000	0.000000	0.000000	0.000000
0.631000	184.744746	666.338652	-3.602817	1.447703	0.000000	0.643226	-0.033345	0.008716	0.093267	0.000000	0.000000	0.000000	0.000000	0.000000	0.000000	0.000000	0.000000	0.000000
0.631500	183.748966	658.252130	-3.527401	1.447949	0.000000	0.643269	-0.032965	0.008646	0.092255	0.000000	0.000000	0.000000	0.000000	0.000000	0.000000	0.000000	0.000000	0.000000
0.632000	182.714405	650.159218	-3.453598	1.448199	0.000000	0.643312	-0.032585	0.008575	0.091240	0.000000	0.000000	0.000000	0.000000	0.000000	0.000000	0.000000	0.000000	0.000000
0.632500	181.641730	642.061609	-3.381357	1.448455	0.000000	0.643356	-0.032206	0.008504	0.090224	0.000000	0.000000	0.000000	0.000000	0.000000	0.000000	0.000000	0.000000	0.000000
0.633000	180.531663	633.961056	-3.310627	1.448716	0.000000	0.643401	-0.031826	0.008433	0.089206	0.000000	0.000000	0.000000	0.000000	0.000000	0.000000	0.000000	0.000000	0.000000
0.633500	179.384978	625.859370	-3.241356	1.448984	0.000000	0.643446	-0.031446	0.008361	0.088187	0.000000	0.000000	0.000000	0.000000	0.000000	0.000000	0.000000	0.000000	0.000000
0.634000	178.202499	617.758416	-3.173490	1.449258	0.000000	0.643493	-0.031066	0.008289	0.087167	0.000000	0.000000	0.000000	0.000000	0.000000	0.000000	0.000000	0.000000	0.000000
0.634500	176.985102	609.660118	-3.106973	1.449539	0.000000	0.643540	-0.030687	0.008217	0.086146	0.000000	0.000000	0.000000	0.000000	0.000000	0.000000	0.000000	0.000000	0.000000
0.635000	175.733710	601.566448	-3.041746	1.449827	0.000000	0.643588	-0.030308	0.008145	0.085124	0.000000	0.000000	0.000000	0.000000	0.000000	0.000000	0.000000	0.000000	0.000000
0.635500	174.449293	593.479433	-2.977753	1.450122	0.000000	0.643636	-0.029929	0.008072	0.084103	0.000000	0.000000	0.000000	0.000000	0.000000	0.000000	0.000000	0.000000	0.000000
0.636000	173.132866	585.401148	-2.914932	1.450425	0.000000	0.643684	-0.029550	0.007999	0.083080	0.000000	0.000000	0.000000	0.000000	0.000000	0.000000	0.000000	0.000000	0.000000
0.636500	171.785487	577.333713	-2.853222	1.450735	0.000000	0.643733	-0.029172	0.007926	0.082058	0.000000	0.000000	0.000000	0.000000	0.000000	0.000000	0.000000	0.000000	0.000000
0.637000	170.408255	569.279291	-2.792562	1.451054	0.000000	0.643781	-0.028795	0.007853	0.081037	0.000000	0.000000	0.000000	0.000000	0.000000	0.000000	0.000000	0.000000	0.000000
0.637500	169.002307	561.240087	-2.732887	1.451381	0.000000	0.643830	-0.028418	0.007779	0.080016	0.000000	0.000000	0.000000	0.000000	0.000000	0.000000	0.000000	0.000000	0.000000
0.638000	167.568817	553.218344	-2.674133	1.451717	0.000000	0.643879	-0.028042	0.007705	0.078996	0.000000	0.000000	0.000000	0.000000	0.000000	0.000000	0.000000	0.000000	0.000000
0.638500	166.108992	545.216337	-2.616236	1.452061	0.000000	0.643927	-0.027667	0.007631	0.077978	0.000000	0.000000	0.000000	0.000000	0.000000	0.000000	0.000000	0.000000	0.000000
0.639000	164.624073	537.236372	-2.559130	1.452415	0.000000	0.643975	-0.027293	0.007557	0.076960	0.000000	0.000000	0.000000	0.000000	0.000000	0.000000	0.000000	0.000000	0.000000
0.639500	163.115325	529.280782	-2.502748	1.452777	0.000000	0.644023	-0.026920	0.007483	0.075945	0.000000	0.000000	0.000000	0.000000	0.000000	0.000000	0.000000	0.000000	0.000000
0.640000	161.584044	521.351923	-2.447025	1.453149	0.000000	0.644071	-0.026547	0.007409	0.074932	0.000000	0.000000	0.000000	0.000000	0.000000	0.000000	0.000000	0.000000	0.000000
0.640500	160.031544	513.452170	-2.391894	1.453531	0.000000	0.644118	-0.026176	0.007334	0.073921	0.000000	0.000000	0.000000	0.000000	0.000000	0.000000	0.000000	0.000000	0.000000
0.641000	158.459161	505.583909	-2.337288	1.453922	0.000000	0.644164	-0.025807	0.007259	0.072912	0.000000	0.000000	0.000000	0.000000	0.000000	0.000000	0.000000	0.000000	0.000000
0.641500	156.868249	497.749539	-2.283142	1.454323	0.000000	0.644209	-0.025439	0.007184	0.071907	0.000000	0.000000	0.000000	0.000000	0.000000	0.000000	0.000000	0.000000	0.000000
0.642000	155.260175	489.951463	-2.229391	1.454733	0.000000	0.644254	-0.025072	0.007110	0.070905	0.000000	0.000000	0.000000	0.000000	0.000000	0.000000	0.000000	0.000000	0.000000
0.642500	153.636314	482.192084	-2.175968	1.455153	0.000000	0.644298	-0.024707	0.007035	0.069906	0.000000	0.000000	0.000000	0.000000	0.000000	0.000000	0.000000	0.000000	0.000000
0.643000	151.998053	474.473800	-2.122810	1.455583	0.000000	0.644341	-0.024343	0.006960	0.068911	0.000000	0.000000	0.000000	0.000000	0.000000	0.000000	0.000000	0.000000	0.000000
0.643500	150.346777	466.799001	-2.069855	1.456023	0.000000	0.644383	-0.023982	0.006885	0.067920	0.000000	0.000000	0.000000	0.000000	0.000000	0.000000	0.000000	0.000000	0.000000
0.644000	148.683878	459.170060	-2.017039	1.456472	0.000000	0.644424	-0.023622	0.006809	0.066933	0.000000	0.000000	0.000000	0.000000	0.000000	0.000000	0.000000	0.000000	0.000000
0.644500	147.010740	451.589333	-1.964304	1.456930	0.000000	0.644465	-0.023264	0.006734	0.065951	0.000000	0.000000	0.000000	0.000000	0.000000	0.000000	0.000000	0.000000	0.000000
0.645000	145.328744	444.059147	-1.911590	1.457398	0.000000	0.644503	-0.022909	0.006659	0.064974	0.000000	0.000000	0.000000	0.000000	0.000000	0.000000	0.000000	0.000000	0.000000
0.645500	143.639260	436.581801	-1.858841	1.457875	0.000000	0.644541	-0.022555	0.006584	0.064002	0.000000	0.000000	0.000000	0.000000	0.000000	0.000000	0.000000	0.000000	0.000000
0.646000	141.943648	429.159558	-1.806003	1.458362	0.000000	0.644578	-0.022204	0.006509	0.063035	0.000000	0.000000	0.000000	0.000000	0.000000	0.000000	0.000000	0.000000	0.000000
0.646500	140.243248	421.794640	-1.753023	1.458857	0.000000	0.644613	-0.021856	0.006434	0.062074	0.000000	0.000000	0.000000	0.000000	0.000000	0.000000	0.000000	0.000000	0.000000
0.647000	138.539382	414.489221	-1.699852	1.459360	0.000000	0.644648	-0.021510	0.006360	0.061119	0.000000	0.000000	0.000000	0.000000	0.000000	0.000000	0.000000	0.000000	0.000000
0.647500	136.833353	407.245424	-1.646443	1.459871	0.000000	0.644681	-0.021166	0.006285	0.060170	0.000000	0.000000	0.000000	0.000000	0.000000	0.000000	0.000000	0.000000	0.000000
0.648000	135.126432	400.065316	-1.592752	1.460391	0.000000	0.644713	-0.020825	0.006210	0.059228	0.000000	0.000000	0.000000	0.000000	0.000000	0.000000	0.000000	0.000000	0.000000
0.648500	133.419866	392.950899	-1.538740	1.460917	0.000000	0.644744	-0.020487	0.006136	0.058292	0.000000	0.000000	0.000000	0.000000	0.000000	0.000000	0.000000	0.000000	0.000000
0.649000	131.714867	385.904110	-1.484368	1.461451	0.000000	0.644773	-0.020152	0.006062	0.057363	0.000000	0.000000	0.000000	0.000000	0.000000	0.000000	0.000000	0.000000	0.000000
0.649500	130.012615	378.926813	-1.429603	1.461991	0.000000	0.644802	-0.019819	0.005988	0.056441	0.000000	0.000000	0.000000	0.000000	0.000000	0.000000	0.000000	0.000000	0.000000
0.650000	128.314249	372.020792	-1.374414	1.462537	0.000000	0.644830	-0.019490	0.005914	0.055526	0.000000	0.000000	0.000000	0.000000	0.000000	0.000000	0.000000	0.000000	0.000000
0.650500	126.620869	365.187752	-1.318777	1.463089	0.000000	0.644856	-0.019164	0.005840	0.054619	0.000000	0.000000	0.000000	0.000000	0.000000	0.000000	0.000000	0.000000	0.000000
0.651000	124.933532	358.429308	-1.262669	1.463646	0.000000	0.644882	-0.018841	0.005767	0.053720	0.000000	0.000000	0.000000	0.000000	0.000000	0.000000	0.000000	0.000000	0.000000
0.651500	123.253249	351.746985	-1.206071	1.464206	0.000000	0.644907	-0.018521	0.005693	0.052828	0.000000	0.000000	0.000000	0.000000	0.000000	0.000000	0.000000	0.000000	0.000000
0.652000	121.580980	345.142212	-1.148971	1.464771	0.000000	0.644931	-0.018204	0.005620	0.051944	0.000000	0.000000	0.000000	0.000000	0.000000	0.000000	0.000000	0.000000	0.000000
0.652500	119.917640	338.616317	-1.091360	1.465338	0.000000	0.644955	-0.017891	0.005548	0.051069	0.000000	0.000000	0.000000	0.000000	0.000000	0.000000	0.000000	0.000000	0.000000
0.653000	118.264086	332.170525	-1.033231	1.465908	0.000000	0.644978	-0.017581	0.005475	0.050202	0.000000	0.000000	0.000000	0.000000	0.000000	0.000000	0.000000	0.000000	0.000000
0.653500	116.621123	325.805953	-0.974587	1.466479	0.000000	0.645001	-0.017275	0.005403	0.049343	0.000000	0.000000	0.000000	0.000000	0.000000	0.000000	0.000000	0.000000	0.000000
0.654000	114.989500	319.523607	-0.915431	1.467050	0.000000	0.645024	-0.016972	0.005332	0.048493	0.000000	0.000000	0.000000	0.000000	0.000000	0.000000	0.000000	0.000000	0.000000
0.654500	113.369906	313.324379	-0.855772	1.467622	0.000000	0.645046	-0.016673	0.005260	0.047652	0.000000	0.000000	0.000000	0.000000	0.000000	0.000000	0.000000	0.000000	0.000000
0.655000	111.762972	307.209043	-0.795625	1.468192	0.000000	0.645068	-0.016377	0.005189	0.046819	0.000000	0.000000	0.000000	0.000000	0.000000	0.000000	0.000000	0.000000	0.000000
0.655500	110.169269	301.178255	-0.735009	1.468761	0.000000	0.645091	-0.016085	0.005118	0.045996	0.000000	0.000000	0.000000	0.000000	0.000000	0.000000	0.000000	0.000000	0.000000
0.656000	108.589303	295.232548	-0.673947	1.469326	0.000000	0.645114	-0.015797	0.005048	0.045181	0.000000	0.000000	0.000000	0.000000	0.000000	0.000000	0.000000	0.000000	0.000000
0.656500	107.023522	289.372331	-0.612469	1.469888	0.000000	0.645138	-0.015512	0.004978	0.044375	0.000000	0.000000	0.000000	0.000000	0.000000	0.000000	0.000000	0.000000	0.000000
0.657000	105.472305	283.597889	-0.550606	1.470445	0.000000	0.645163	-0.015231	0.004908	0.043578	0.000000	0.000000	0.000000	0.000000	0.000000	0.000000	0.000000	0.000000	0.000000
0.657500	103.935973	277.909377	-0.488397	1.470997	0.000000	0.645189	-0.014953	0.004839	0.042791	0.000000	0.000000	0.000000	0.000000	0.000000	0.000000	0.000000	0.000000	0.000000
